<svg width="50" height="51" viewBox="0 0 50 51" fill="none" xmlns="http://www.w3.org/2000/svg">
<circle cx="25" cy="25.7871" r="25" fill="white"/>
<path d="M24.76 36.3871H25.24C26.1399 36.3871 26.5899 36.3871 26.9053 36.1579C27.0072 36.0839 27.0968 35.9943 27.1708 35.8925C27.4 35.577 27.4 35.127 27.4 34.2271V27.3871H28.9C29.7427 27.3871 30.164 27.3871 30.4667 27.1849C30.5977 27.0973 30.7102 26.9848 30.7978 26.8538C31 26.5511 31 26.1298 31 25.2871C31 24.4444 31 24.0231 30.7978 23.7204C30.7102 23.5894 30.5977 23.4769 30.4667 23.3893C30.164 23.1871 29.7427 23.1871 28.9 23.1871H27.4V20.7871C27.4 20.228 27.4 19.9484 27.4913 19.7279C27.6131 19.4339 27.8467 19.2002 28.1408 19.0785C28.3613 18.9871 28.6409 18.9871 29.2 18.9871C29.7591 18.9871 30.0387 18.9871 30.2592 18.8958C30.5533 18.774 30.7869 18.5404 30.9087 18.2463C31 18.0258 31 17.7462 31 17.1871V16.6538C31 16.032 31 15.7211 30.8876 15.48C30.7683 15.2243 30.5628 15.0188 30.3071 14.8995C30.066 14.7871 29.7551 14.7871 29.1333 14.7871C26.957 14.7871 25.8689 14.7871 25.025 15.1806C24.1301 15.5979 23.4108 16.3172 22.9935 17.2121C22.6 18.056 22.6 19.1441 22.6 21.3204V23.1871H21.1C20.2573 23.1871 19.836 23.1871 19.5333 23.3893C19.4023 23.4769 19.2898 23.5894 19.2022 23.7204C19 24.0231 19 24.4444 19 25.2871C19 26.1298 19 26.5511 19.2022 26.8538C19.2898 26.9848 19.4023 27.0973 19.5333 27.1849C19.836 27.3871 20.2573 27.3871 21.1 27.3871H22.6V34.2271C22.6 35.127 22.6 35.577 22.8292 35.8925C22.9032 35.9943 22.9928 36.0839 23.0947 36.1579C23.4101 36.3871 23.8601 36.3871 24.76 36.3871Z" stroke="#0C1A3A" stroke-width="1.5" stroke-linejoin="round"/>
</svg>
