<svg width="50" height="51" viewBox="0 0 50 51" fill="none" xmlns="http://www.w3.org/2000/svg">
<circle cx="25" cy="25.7871" r="25" fill="white"/>
<path d="M16.0931 36.6673L16.6809 35.8583L16.0931 36.6673ZM14.9698 35.544L15.7788 34.9562L14.9698 35.544ZM35.8802 35.544L35.0712 34.9562L35.8802 35.544ZM34.7569 36.6673L34.1691 35.8583L34.7569 36.6673ZM34.7569 15.7569L34.1691 16.5659L34.7569 15.7569ZM35.8802 16.8802L35.0712 17.468L35.8802 16.8802ZM16.0931 15.7569L16.6809 16.5659L16.0931 15.7569ZM14.9698 16.8802L15.7788 17.468L14.9698 16.8802ZM32.6766 19.2304C32.6766 19.3792 32.556 19.4998 32.4071 19.4998V21.4998C33.6605 21.4998 34.6766 20.4838 34.6766 19.2304H32.6766ZM32.4071 19.4998C32.2583 19.4998 32.1377 19.3792 32.1377 19.2304H30.1377C30.1377 20.4838 31.1538 21.4998 32.4071 21.4998V19.4998ZM32.1377 19.2304C32.1377 19.0816 32.2583 18.9609 32.4071 18.9609V16.9609C31.1538 16.9609 30.1377 17.977 30.1377 19.2304H32.1377ZM32.4071 18.9609C32.556 18.9609 32.6766 19.0816 32.6766 19.2304H34.6766C34.6766 17.977 33.6605 16.9609 32.4071 16.9609V18.9609ZM23.14 15.7871H27.71V13.7871H23.14V15.7871ZM35.85 23.9271V28.4971H37.85V23.9271H35.85ZM27.71 36.6371H23.14V38.6371H27.71V36.6371ZM15 28.4971V23.9271H13V28.4971H15ZM29.5028 26.2121C29.5028 28.4642 27.6771 30.2899 25.425 30.2899V32.2899C28.7817 32.2899 31.5028 29.5688 31.5028 26.2121H29.5028ZM25.425 30.2899C23.1729 30.2899 21.3472 28.4642 21.3472 26.2121H19.3472C19.3472 29.5688 22.0683 32.2899 25.425 32.2899V30.2899ZM21.3472 26.2121C21.3472 23.96 23.1729 22.1343 25.425 22.1343V20.1343C22.0683 20.1343 19.3472 22.8554 19.3472 26.2121H21.3472ZM25.425 22.1343C27.6771 22.1343 29.5028 23.96 29.5028 26.2121H31.5028C31.5028 22.8554 28.7817 20.1343 25.425 20.1343V22.1343ZM23.14 36.6371C21.2137 36.6371 19.8493 36.6357 18.7968 36.5217C17.763 36.4097 17.1494 36.1987 16.6809 35.8583L15.5053 37.4764C16.3716 38.1057 17.3774 38.3796 18.5814 38.5101C19.7666 38.6385 21.2582 38.6371 23.14 38.6371V36.6371ZM13 28.4971C13 30.3789 12.9986 31.8705 13.127 33.0557C13.2575 34.2597 13.5314 35.2655 14.1608 36.1318L15.7788 34.9562C15.4384 34.4877 15.2274 33.8741 15.1154 32.8403C15.0014 31.7878 15 30.4234 15 28.4971H13ZM16.6809 35.8583C16.3347 35.6068 16.0303 35.3024 15.7788 34.9562L14.1608 36.1318C14.5356 36.6477 14.9894 37.1015 15.5053 37.4764L16.6809 35.8583ZM35.85 28.4971C35.85 30.4234 35.8486 31.7878 35.7346 32.8403C35.6226 33.8741 35.4116 34.4877 35.0712 34.9562L36.6892 36.1318C37.3186 35.2655 37.5925 34.2597 37.723 33.0557C37.8514 31.8705 37.85 30.3789 37.85 28.4971H35.85ZM27.71 38.6371C29.5918 38.6371 31.0834 38.6385 32.2686 38.5101C33.4726 38.3796 34.4784 38.1057 35.3447 37.4764L34.1691 35.8583C33.7006 36.1987 33.087 36.4097 32.0532 36.5217C31.0007 36.6357 29.6363 36.6371 27.71 36.6371V38.6371ZM35.0712 34.9562C34.8197 35.3024 34.5153 35.6068 34.1691 35.8583L35.3447 37.4764C35.8606 37.1015 36.3144 36.6477 36.6892 36.1318L35.0712 34.9562ZM27.71 15.7871C29.6363 15.7871 31.0007 15.7885 32.0532 15.9025C33.087 16.0145 33.7006 16.2255 34.1691 16.5659L35.3447 14.9479C34.4784 14.3185 33.4726 14.0446 32.2686 13.9141C31.0834 13.7857 29.5918 13.7871 27.71 13.7871V15.7871ZM37.85 23.9271C37.85 22.0454 37.8514 20.5537 37.723 19.3685C37.5925 18.1645 37.3186 17.1587 36.6892 16.2925L35.0712 17.468C35.4116 17.9365 35.6226 18.5501 35.7346 19.5839C35.8486 20.6364 35.85 22.0008 35.85 23.9271H37.85ZM34.1691 16.5659C34.5153 16.8174 34.8197 17.1218 35.0712 17.468L36.6892 16.2925C36.3144 15.7765 35.8606 15.3227 35.3447 14.9479L34.1691 16.5659ZM23.14 13.7871C21.2582 13.7871 19.7666 13.7857 18.5814 13.9141C17.3774 14.0446 16.3716 14.3185 15.5053 14.9479L16.6809 16.5659C17.1494 16.2255 17.763 16.0145 18.7968 15.9025C19.8493 15.7885 21.2137 15.7871 23.14 15.7871V13.7871ZM15 23.9271C15 22.0008 15.0014 20.6364 15.1154 19.5839C15.2274 18.5501 15.4384 17.9365 15.7788 17.468L14.1608 16.2925C13.5314 17.1587 13.2575 18.1645 13.127 19.3685C12.9986 20.5537 13 22.0454 13 23.9271H15ZM15.5053 14.9479C14.9894 15.3227 14.5356 15.7765 14.1608 16.2925L15.7788 17.468C16.0303 17.1218 16.3347 16.8174 16.6809 16.5659L15.5053 14.9479Z" fill="#0C1A3A"/>
</svg>
