<svg width="50" height="51" viewBox="0 0 50 51" fill="none" xmlns="http://www.w3.org/2000/svg">
<circle cx="25" cy="25.041" r="25" fill="#0C1A3A"/>
<path d="M11.9999 19.9021L16.8261 23.6556C20.0894 26.1937 21.7211 27.4627 23.585 27.7105C24.1926 27.7913 24.8082 27.7913 25.4159 27.7105C27.2797 27.4626 28.9113 26.1935 32.1746 23.6553L36.9999 19.9021M22.4166 35.8743H26.5833C29.819 35.8743 31.4369 35.8743 32.713 35.3457C34.4146 34.6409 35.7665 33.289 36.4714 31.5874C37 30.3112 37 28.6934 37 25.4577C37 22.222 37 20.6041 36.4714 19.3279C35.7665 17.6264 34.4146 16.2744 32.713 15.5696C31.4369 15.041 29.819 15.041 26.5833 15.041H22.4166C19.1809 15.041 17.5631 15.041 16.2869 15.5696C14.5853 16.2744 13.2334 17.6264 12.5286 19.3279C12 20.6041 12 22.222 12 25.4577C12 28.6934 12 30.3112 12.5286 31.5874C13.2334 33.289 14.5853 34.6409 16.2869 35.3457C17.5631 35.8743 19.1809 35.8743 22.4166 35.8743Z" stroke="white" stroke-width="2" stroke-linejoin="round"/>
</svg>
