<svg width="50" height="51" viewBox="0 0 50 51" fill="none" xmlns="http://www.w3.org/2000/svg">
<circle cx="25" cy="25.041" r="24.75" fill="#0C1A3A" stroke="white" stroke-width="0.5"/>
<path d="M15.2237 15.2643L14.5168 14.557L15.2237 15.2643ZM21.1325 15.2643L21.8395 14.557L21.1325 15.2643ZM21.1325 21.1708L20.4256 20.4635L21.1325 21.1708ZM28.3075 28.3429L27.6005 27.6357L28.3075 28.3429ZM34.2163 34.2494L33.5093 33.5421H33.5093L34.2163 34.2494ZM19.4443 30.0305L18.7373 30.7377L19.4443 30.0305ZM14.0221 18.648L15.0221 18.6424C15.0219 18.61 15.0202 18.5777 15.0169 18.5455L14.0221 18.648ZM30.8312 35.4505L30.9336 34.4558C30.9015 34.4525 30.8692 34.4507 30.8368 34.4506L30.8312 35.4505ZM18.8414 22.3414L18.6835 21.3539C18.3636 21.4051 18.0883 21.608 17.9448 21.8984C17.8013 22.1889 17.8074 22.5308 17.9612 22.816L18.8414 22.3414ZM27.1364 30.6332L26.6621 31.5135C26.9472 31.6671 27.2891 31.6731 27.5794 31.5297C27.8698 31.3862 28.0727 31.1109 28.1238 30.7911L27.1364 30.6332ZM15.9307 15.9715C17.1719 14.7308 19.1844 14.7308 20.4256 15.9715L21.8395 14.557C19.8173 12.5357 16.5389 12.5357 14.5168 14.557L15.9307 15.9715ZM20.4256 15.9715C21.6665 17.212 21.6665 19.223 20.4256 20.4635L21.8395 21.878C23.8619 19.8564 23.8619 16.5786 21.8395 14.557L20.4256 15.9715ZM29.0144 29.0501C30.2556 27.8095 32.2681 27.8095 33.5093 29.0501L34.9232 27.6357C32.9011 25.6143 29.6227 25.6143 27.6005 27.6357L29.0144 29.0501ZM33.5093 29.0501C34.7502 30.2906 34.7502 32.3017 33.5093 33.5421L34.9232 34.9566C36.9456 32.935 36.9456 29.6572 34.9232 27.6357L33.5093 29.0501ZM20.1513 29.3232C16.7927 25.9659 15.0408 21.9388 15.0221 18.6424L13.0221 18.6537C13.0445 22.592 15.0965 27.0983 18.7373 30.7377L20.1513 29.3232ZM15.0169 18.5455C14.922 17.6248 15.2271 16.6749 15.9307 15.9715L14.5168 14.557C13.3694 15.704 12.8734 17.2565 13.0274 18.7506L15.0169 18.5455ZM33.5093 33.5421C32.8056 34.2456 31.8551 34.5507 30.9336 34.4558L30.7287 36.4453C32.223 36.5992 33.7759 36.1035 34.9232 34.9566L33.5093 33.5421ZM30.8368 34.4506C27.5387 34.4318 23.5098 32.6805 20.1513 29.3232L18.7373 30.7377C22.3782 34.3771 26.8861 36.4282 30.8255 36.4505L30.8368 34.4506ZM20.4256 20.4635C19.9329 20.956 19.3213 21.252 18.6835 21.3539L18.9992 23.3288C20.039 23.1626 21.039 22.6782 21.8395 21.878L20.4256 20.4635ZM23.1057 26.37C21.6945 24.9594 20.5607 23.4231 19.7216 21.8668L17.9612 22.816C18.8954 24.5486 20.1473 26.2407 21.6917 27.7845L23.1057 26.37ZM28.1238 30.7911C28.2258 30.1538 28.5218 29.5426 29.0144 29.0501L27.6005 27.6357C26.8 28.4358 26.3153 29.4356 26.149 30.4752L28.1238 30.7911ZM27.6107 29.7528C26.0537 28.914 24.5168 27.7806 23.1057 26.37L21.6917 27.7845C23.2361 29.3283 24.9288 30.5797 26.6621 31.5135L27.6107 29.7528Z" fill="white"/>
</svg>
