<svg width="50" height="51" viewBox="0 0 50 51" fill="none" xmlns="http://www.w3.org/2000/svg">
<circle cx="25" cy="25.7871" r="25" fill="white"/>
<path d="M18.7124 31.9253C18.7124 32.4775 19.1601 32.9253 19.7124 32.9253C20.2647 32.9253 20.7124 32.4775 20.7124 31.9253H18.7124ZM23.1555 31.9253C23.1555 32.4775 23.6032 32.9253 24.1555 32.9253C24.7077 32.9253 25.1555 32.4775 25.1555 31.9253H23.1555ZM25.1555 24.3086C25.1555 23.7563 24.7077 23.3086 24.1555 23.3086C23.6032 23.3086 23.1555 23.7563 23.1555 24.3086H25.1555ZM15.5115 36.9368L16.0992 36.1278L15.5115 36.9368ZM14.7003 36.1257L15.5093 35.5379L14.7003 36.1257ZM36.1497 36.1257L35.3407 35.5379L36.1497 36.1257ZM35.3385 36.9368L34.7508 36.1278L35.3385 36.9368ZM35.3385 15.4874L34.7508 16.2964L35.3385 15.4874ZM36.1497 16.2986L35.3407 16.8863L36.1497 16.2986ZM15.5115 15.4874L16.0992 16.2964L15.5115 15.4874ZM14.7003 16.2986L15.5093 16.8863L14.7003 16.2986ZM30.1374 26.9268V31.9253H32.1374V26.9268H30.1374ZM18.7124 24.3086V31.9253H20.7124V24.3086H18.7124ZM25.1555 31.9253V28.6723H23.1555V31.9253H25.1555ZM25.1555 28.6723V24.3086H23.1555V28.6723H25.1555ZM28.5192 23.3086C25.5569 23.3086 23.1555 25.71 23.1555 28.6723H25.1555C25.1555 26.8146 26.6614 25.3086 28.5192 25.3086V23.3086ZM32.1374 26.9268C32.1374 24.9285 30.5175 23.3086 28.5192 23.3086V25.3086C29.4129 25.3086 30.1374 26.0331 30.1374 26.9268H32.1374ZM19.9822 20.4998C19.9822 20.6486 19.8615 20.7693 19.7127 20.7693V22.7693C20.9661 22.7693 21.9822 21.7532 21.9822 20.4998H19.9822ZM19.7127 20.7693C19.5639 20.7693 19.4433 20.6486 19.4433 20.4998H17.4433C17.4433 21.7532 18.4593 22.7693 19.7127 22.7693V20.7693ZM19.4433 20.4998C19.4433 20.351 19.5639 20.2304 19.7127 20.2304V18.2304C18.4593 18.2304 17.4433 19.2465 17.4433 20.4998H19.4433ZM19.7127 20.2304C19.8615 20.2304 19.9822 20.351 19.9822 20.4998H21.9822C21.9822 19.2465 20.9661 18.2304 19.7127 18.2304V20.2304ZM20.6 15.7871H30.25V13.7871H20.6V15.7871ZM35.85 21.3871V31.0371H37.85V21.3871H35.85ZM30.25 36.6371H20.6V38.6371H30.25V36.6371ZM15 31.0371V21.3871H13V31.0371H15ZM20.6 36.6371C19.2028 36.6371 18.2353 36.6357 17.4937 36.5554C16.7709 36.4771 16.3823 36.3335 16.0992 36.1278L14.9237 37.7459C15.6045 38.2405 16.3853 38.447 17.2783 38.5438C18.1526 38.6385 19.2474 38.6371 20.6 38.6371V36.6371ZM13 31.0371C13 32.3897 12.9986 33.4845 13.0934 34.3588C13.1901 35.2518 13.3966 36.0326 13.8913 36.7134L15.5093 35.5379C15.3036 35.2548 15.16 34.8663 15.0817 34.1434C15.0014 33.4018 15 32.4343 15 31.0371H13ZM16.0992 36.1278C15.8729 35.9633 15.6738 35.7643 15.5093 35.5379L13.8913 36.7134C14.1791 37.1096 14.5275 37.458 14.9237 37.7459L16.0992 36.1278ZM35.85 31.0371C35.85 32.4343 35.8486 33.4018 35.7683 34.1434C35.69 34.8663 35.5464 35.2548 35.3407 35.5379L36.9587 36.7134C37.4534 36.0326 37.6599 35.2518 37.7566 34.3588C37.8514 33.4845 37.85 32.3897 37.85 31.0371H35.85ZM30.25 38.6371C31.6026 38.6371 32.6974 38.6385 33.5717 38.5438C34.4647 38.447 35.2455 38.2405 35.9263 37.7459L34.7508 36.1278C34.4677 36.3335 34.0791 36.4771 33.3563 36.5554C32.6147 36.6357 31.6472 36.6371 30.25 36.6371V38.6371ZM35.3407 35.5379C35.1762 35.7643 34.9771 35.9633 34.7508 36.1278L35.9263 37.7459C36.3225 37.458 36.6709 37.1096 36.9587 36.7134L35.3407 35.5379ZM30.25 15.7871C31.6472 15.7871 32.6147 15.7885 33.3563 15.8688C34.0791 15.9471 34.4677 16.0908 34.7508 16.2964L35.9263 14.6784C35.2455 14.1837 34.4647 13.9772 33.5717 13.8805C32.6974 13.7857 31.6026 13.7871 30.25 13.7871V15.7871ZM37.85 21.3871C37.85 20.0345 37.8514 18.9397 37.7566 18.0654C37.6599 17.1724 37.4534 16.3916 36.9587 15.7108L35.3407 16.8863C35.5464 17.1694 35.69 17.558 35.7683 18.2808C35.8486 19.0224 35.85 19.9899 35.85 21.3871H37.85ZM34.7508 16.2964C34.9771 16.4609 35.1762 16.66 35.3407 16.8863L36.9587 15.7108C36.6709 15.3146 36.3225 14.9662 35.9263 14.6784L34.7508 16.2964ZM20.6 13.7871C19.2474 13.7871 18.1526 13.7857 17.2783 13.8805C16.3853 13.9772 15.6045 14.1837 14.9237 14.6784L16.0992 16.2964C16.3823 16.0908 16.7709 15.9471 17.4937 15.8688C18.2353 15.7885 19.2028 15.7871 20.6 15.7871V13.7871ZM15 21.3871C15 19.9899 15.0014 19.0224 15.0817 18.2808C15.16 17.558 15.3036 17.1694 15.5093 16.8863L13.8913 15.7108C13.3966 16.3916 13.1901 17.1724 13.0934 18.0654C12.9986 18.9397 13 20.0345 13 21.3871H15ZM14.9237 14.6784C14.5275 14.9662 14.1791 15.3146 13.8913 15.7108L15.5093 16.8863C15.6738 16.66 15.8729 16.4609 16.0992 16.2964L14.9237 14.6784Z" fill="#0C1A3A"/>
</svg>
