<svg width="135" height="41" viewBox="0 0 135 41" fill="none" xmlns="http://www.w3.org/2000/svg">
<path fill-rule="evenodd" clip-rule="evenodd" d="M34.1018 6.78972C30.2828 3.01461 25.2054 0.935547 19.8048 0.935547C14.4042 0.935547 9.32677 3.01461 5.50796 6.78972C2.67386 9.59131 0.785859 13.0784 0 16.8726C2.3262 12.6978 6.5509 9.69567 11.5162 9.0124C10.432 10.5139 9.39462 12.9499 8.73344 15.7909C7.4559 21.2802 6.62731 28.5733 7.37207 32.4845C8.11684 36.3958 16.6991 37.5876 19.7496 38.3438C18.1851 38.4953 16.5938 38.4658 15.0016 38.2456C14.0276 38.1109 13.0747 37.9083 12.1483 37.6408C14.231 39.6045 17.0275 40.8345 20.1088 40.907C25.3956 40.8304 30.3546 38.7606 34.1017 35.0564C37.9206 31.2813 40.0238 26.262 40.0238 20.9231C40.0238 15.5841 37.9206 10.5649 34.1018 6.78972ZM11.1388 26.2514C12.2403 30.5654 15.0006 33.66 19.8048 33.66C25.0308 33.66 29.2824 29.457 29.2824 24.2908C29.2824 24.2101 29.2814 24.1296 29.2793 24.0493C29.1558 16.1452 22.9895 9.6641 15.1553 8.93344C13.7631 11.1963 13.0725 12.1631 11.5162 16.8726C10.5068 21.2098 10.3101 23.0056 11.1388 26.2514Z" fill="white"/>
<path d="M48.0234 31.9457V30.1757H48.3534C48.7534 30.1757 49.1034 30.1357 49.4034 30.0557C49.7034 29.9757 49.9434 29.8457 50.1234 29.6657C50.3034 29.4657 50.3934 29.2157 50.3934 28.9157V13.4957C50.3934 13.1957 50.3034 12.9757 50.1234 12.8357C49.9434 12.6757 49.7034 12.5657 49.4034 12.5057C49.1034 12.4457 48.7534 12.4157 48.3534 12.4157H48.0234V10.6457H56.5134L65.3334 27.8957L64.7034 27.7157V12.8957C64.7034 12.7957 64.5934 12.7157 64.3734 12.6557C64.1534 12.5957 63.8734 12.5457 63.5334 12.5057C63.1934 12.4457 62.8434 12.4157 62.4834 12.4157H62.0634V10.6457H69.3534V12.4157H69.0234C68.6434 12.4157 68.2934 12.4557 67.9734 12.5357C67.6734 12.5957 67.4334 12.7157 67.2534 12.8957C67.0734 13.0757 66.9834 13.3157 66.9834 13.6157V31.9457H62.4234L52.0134 11.8157L52.6734 11.9057V29.6957C52.6734 29.7757 52.7834 29.8557 53.0034 29.9357C53.2234 29.9957 53.5034 30.0557 53.8434 30.1157C54.2034 30.1557 54.5634 30.1757 54.9234 30.1757H55.3134V31.9457H48.0234Z" fill="white"/>
<path d="M75.5829 24.3557C75.5829 25.2757 75.6729 26.0957 75.8529 26.8157C76.0529 27.5357 76.3429 28.1357 76.7229 28.6157C77.1029 29.0957 77.5629 29.4657 78.1029 29.7257C78.6629 29.9657 79.2929 30.0857 79.9929 30.0857C80.7329 30.0857 81.3729 29.9457 81.9129 29.6657C82.4529 29.3657 82.9129 28.9957 83.2929 28.5557C83.6929 28.1157 84.0229 27.6657 84.2829 27.2057L85.9929 28.4957C85.6129 29.2157 85.1229 29.8657 84.5229 30.4457C83.9229 31.0057 83.2029 31.4457 82.3629 31.7657C81.5229 32.0857 80.5329 32.2457 79.3929 32.2457C77.7329 32.2457 76.2729 31.9257 75.0129 31.2857C73.7529 30.6457 72.7629 29.7357 72.0429 28.5557C71.3429 27.3557 70.9929 25.9457 70.9929 24.3257C70.9929 22.7257 71.3329 21.3257 72.0129 20.1257C72.7129 18.9257 73.6529 17.9957 74.8329 17.3357C76.0329 16.6557 77.3729 16.3157 78.8529 16.3157C80.0529 16.3157 81.1029 16.4957 82.0029 16.8557C82.9229 17.2157 83.6929 17.7657 84.3129 18.5057C84.9329 19.2257 85.4029 20.1357 85.7229 21.2357C86.0629 22.3157 86.2329 23.5857 86.2329 25.0457H74.9229V23.0957H82.6029L81.8529 23.8757C81.8329 22.8757 81.7629 22.0257 81.6429 21.3257C81.5229 20.6257 81.3429 20.0657 81.1029 19.6457C80.8829 19.2057 80.5829 18.8857 80.2029 18.6857C79.8429 18.4857 79.4129 18.3857 78.9129 18.3857C78.4329 18.3857 77.9929 18.5157 77.5929 18.7757C77.1929 19.0157 76.8429 19.3857 76.5429 19.8857C76.2429 20.3657 76.0029 20.9857 75.8229 21.7457C75.6629 22.4857 75.5829 23.3557 75.5829 24.3557Z" fill="white"/>
<path d="M88.0095 31.9457V30.2957H88.0395C88.3995 30.2957 88.7195 30.2657 88.9995 30.2057C89.2995 30.1457 89.5295 30.0457 89.6895 29.9057C89.8495 29.7657 89.9295 29.5757 89.9295 29.3357V19.5257C89.9295 19.2657 89.8695 19.0757 89.7495 18.9557C89.6295 18.8357 89.4495 18.7357 89.2095 18.6557C88.9695 18.5557 88.6595 18.4657 88.2795 18.3857L88.0095 18.3257V16.6157H94.1295V19.8857L94.4595 20.0057V29.9957C94.4595 30.0557 94.5495 30.1157 94.7295 30.1757C94.9095 30.2157 95.1195 30.2457 95.3595 30.2657C95.6195 30.2857 95.8595 30.2957 96.0795 30.2957H96.1695V31.9457H88.0095ZM106.429 31.9457H98.2695V30.2957H98.3295C98.5295 30.2957 98.7595 30.2857 99.0195 30.2657C99.2795 30.2457 99.4995 30.2157 99.6795 30.1757C99.8795 30.1157 99.9795 30.0557 99.9795 29.9957V21.4457C99.9795 20.8457 99.9095 20.3657 99.7695 20.0057C99.6495 19.6257 99.4495 19.3457 99.1695 19.1657C98.8895 18.9857 98.5095 18.8957 98.0295 18.8957C97.4895 18.8957 96.9695 19.0257 96.4695 19.2857C95.9895 19.5457 95.5395 19.9357 95.1195 20.4557C94.6995 20.9757 94.2895 21.6257 93.8895 22.4057L93.8595 19.9157C94.2995 19.1357 94.7895 18.4857 95.3295 17.9657C95.8895 17.4257 96.5195 17.0157 97.2195 16.7357C97.9195 16.4557 98.6895 16.3157 99.5295 16.3157C100.549 16.3157 101.429 16.5057 102.169 16.8857C102.909 17.2457 103.479 17.8057 103.879 18.5657C104.299 19.3057 104.509 20.2457 104.509 21.3857V29.3357C104.509 29.5757 104.589 29.7657 104.749 29.9057C104.909 30.0457 105.129 30.1457 105.409 30.2057C105.689 30.2657 106.009 30.2957 106.369 30.2957H106.429V31.9457Z" fill="white"/>
<path d="M111.953 14.0957C111.173 14.0957 110.543 13.8957 110.063 13.4957C109.603 13.0957 109.373 12.5357 109.373 11.8157C109.373 11.1157 109.603 10.5757 110.063 10.1957C110.543 9.7957 111.173 9.5957 111.953 9.5957C112.733 9.5957 113.353 9.7957 113.813 10.1957C114.293 10.5757 114.533 11.1157 114.533 11.8157C114.533 12.5357 114.293 13.0957 113.813 13.4957C113.353 13.8957 112.733 14.0957 111.953 14.0957ZM114.323 16.6157V29.3357C114.323 29.7157 114.503 29.9757 114.863 30.1157C115.223 30.2357 115.663 30.2957 116.183 30.2957H116.213V31.9457H107.873V30.2957H107.903C108.443 30.2957 108.883 30.2357 109.223 30.1157C109.583 29.9757 109.763 29.7157 109.763 29.3357V19.5257C109.763 19.1657 109.633 18.9157 109.373 18.7757C109.113 18.6357 108.693 18.5057 108.113 18.3857L107.843 18.3257V16.6157H114.323Z" fill="white"/>
<path d="M134.186 31.9457H125.486V30.2957H125.546C125.886 30.2957 126.216 30.2857 126.536 30.2657C126.856 30.2457 127.126 30.2157 127.346 30.1757C127.566 30.1357 127.676 30.0857 127.676 30.0257L123.686 24.9557L123.596 24.8657L119.126 19.0757C118.966 18.8557 118.806 18.6957 118.646 18.5957C118.486 18.4757 118.306 18.3957 118.106 18.3557C117.906 18.3157 117.646 18.2957 117.326 18.2957H117.296V16.6157H125.906V18.2657H125.846C125.526 18.2657 125.206 18.2757 124.886 18.2957C124.586 18.3157 124.336 18.3457 124.136 18.3857C123.936 18.4057 123.836 18.4457 123.836 18.5057L127.646 23.4257L127.766 23.5457L132.206 29.2757C132.406 29.4957 132.586 29.6857 132.746 29.8457C132.926 30.0057 133.126 30.1257 133.346 30.2057C133.566 30.2657 133.836 30.2957 134.156 30.2957H134.186V31.9457ZM117.116 31.9457V30.2957H117.146C117.406 30.2957 117.646 30.2557 117.866 30.1757C118.106 30.0957 118.326 29.9757 118.526 29.8157C118.746 29.6357 118.956 29.4157 119.156 29.1557L123.596 23.8457L125.186 24.8357L121.226 29.6957C121.226 29.8157 121.316 29.9257 121.496 30.0257C121.696 30.1057 121.946 30.1757 122.246 30.2357C122.546 30.2757 122.846 30.2957 123.146 30.2957H123.206V31.9457H117.116ZM127.556 24.5657L126.056 23.4557L129.806 18.8657C129.806 18.7457 129.716 18.6457 129.536 18.5657C129.356 18.4657 129.126 18.3957 128.846 18.3557C128.566 18.2957 128.276 18.2657 127.976 18.2657H127.886V16.6157H133.856V18.2657H133.826C133.546 18.2657 133.286 18.3157 133.046 18.4157C132.806 18.4957 132.576 18.6357 132.356 18.8357C132.156 19.0357 131.916 19.2957 131.636 19.6157L127.556 24.5657Z" fill="white"/>
</svg>
