<svg width="16" height="17" viewBox="0 0 16 17" fill="none" xmlns="http://www.w3.org/2000/svg">
<path fill-rule="evenodd" clip-rule="evenodd" d="M7.82895 16.4431C12.1528 16.4431 15.6579 12.9379 15.6579 8.6141C15.6579 4.2903 12.1528 0.785156 7.82895 0.785156C3.50514 0.785156 0 4.2903 0 8.6141C0 12.9379 3.50514 16.4431 7.82895 16.4431ZM10.6636 7.43365C10.8988 7.19847 10.8988 6.81716 10.6636 6.58197C10.4284 6.34679 10.0471 6.34679 9.8119 6.58197L7.02586 9.36801L5.84576 8.18791C5.61058 7.95273 5.22927 7.95273 4.99408 8.18791C4.7589 8.4231 4.7589 8.80441 4.99408 9.03959L6.60002 10.6455C6.71296 10.7585 6.86614 10.8219 7.02586 10.8219C7.18558 10.8219 7.33876 10.7585 7.4517 10.6455L10.6636 7.43365Z" fill="#FF6600"/>
</svg>
