<svg width="25" height="25" viewBox="0 0 25 25" fill="none" xmlns="http://www.w3.org/2000/svg">
<path d="M3.09313 22.9623L3.68092 22.1532L3.09313 22.9623ZM1.96977 21.8389L2.77879 21.2511L1.96977 21.8389ZM22.8802 21.8389L22.0712 21.2511L22.8802 21.8389ZM21.7569 22.9623L21.1691 22.1532L21.7569 22.9623ZM21.7569 2.0518L21.1691 2.86082L21.7569 2.0518ZM22.8802 3.17517L22.0712 3.76295L22.8802 3.17517ZM3.09313 2.0518L3.68092 2.86082L3.09313 2.0518ZM1.96977 3.17517L2.77879 3.76295L1.96977 3.17517ZM19.6764 5.52483C19.6764 5.67365 19.5558 5.79428 19.407 5.79428V7.79428C20.6603 7.79428 21.6764 6.77821 21.6764 5.52483H19.6764ZM19.407 5.79428C19.2581 5.79428 19.1375 5.67364 19.1375 5.52483H17.1375C17.1375 6.77822 18.1536 7.79428 19.407 7.79428V5.79428ZM19.1375 5.52483C19.1375 5.37603 19.2581 5.25539 19.407 5.25539V3.25539C18.1536 3.25539 17.1375 4.27145 17.1375 5.52483H19.1375ZM19.407 5.25539C19.5558 5.25539 19.6764 5.37602 19.6764 5.52483H21.6764C21.6764 4.27146 20.6603 3.25539 19.407 3.25539V5.25539ZM10.14 2.08203H14.71V0.0820312H10.14V2.08203ZM22.85 10.222V14.792H24.85V10.222H22.85ZM14.71 22.932H10.14V24.932H14.71V22.932ZM2 14.792V10.222H0V14.792H2ZM16.5028 12.507C16.5028 14.7591 14.6771 16.5848 12.425 16.5848V18.5848C15.7817 18.5848 18.5028 15.8637 18.5028 12.507H16.5028ZM12.425 16.5848C10.1729 16.5848 8.34722 14.7591 8.34722 12.507H6.34722C6.34722 15.8637 9.06834 18.5848 12.425 18.5848V16.5848ZM8.34722 12.507C8.34722 10.2549 10.1729 8.42925 12.425 8.42925V6.42925C9.06834 6.42925 6.34722 9.15037 6.34722 12.507H8.34722ZM12.425 8.42925C14.6771 8.42925 16.5028 10.2549 16.5028 12.507H18.5028C18.5028 9.15037 15.7817 6.42925 12.425 6.42925V8.42925ZM10.14 22.932C8.2137 22.932 6.84929 22.9307 5.7968 22.8166C4.76302 22.7046 4.14943 22.4936 3.68092 22.1532L2.50535 23.7713C3.37162 24.4007 4.37743 24.6746 5.58137 24.805C6.7666 24.9334 8.25825 24.932 10.14 24.932V22.932ZM0 14.792C0 16.6738 -0.00137258 18.1654 0.127039 19.3507C0.257479 20.5546 0.531373 21.5604 1.16075 22.4267L2.77879 21.2511C2.4384 20.7826 2.22741 20.169 2.1154 19.1352C2.00137 18.0827 2 16.7183 2 14.792H0ZM3.68092 22.1532C3.33474 21.9017 3.0303 21.5973 2.77879 21.2511L1.16075 22.4267C1.53563 22.9427 1.98938 23.3964 2.50535 23.7713L3.68092 22.1532ZM22.85 14.792C22.85 16.7183 22.8486 18.0827 22.7346 19.1352C22.6226 20.169 22.4116 20.7826 22.0712 21.2511L23.6892 22.4267C24.3186 21.5604 24.5925 20.5546 24.723 19.3507C24.8514 18.1654 24.85 16.6738 24.85 14.792H22.85ZM14.71 24.932C16.5918 24.932 18.0834 24.9334 19.2686 24.805C20.4726 24.6746 21.4784 24.4007 22.3447 23.7713L21.1691 22.1532C20.7006 22.4936 20.087 22.7046 19.0532 22.8166C18.0007 22.9307 16.6363 22.932 14.71 22.932V24.932ZM22.0712 21.2511C21.8197 21.5973 21.5153 21.9017 21.1691 22.1532L22.3447 23.7713C22.8606 23.3964 23.3144 22.9427 23.6892 22.4267L22.0712 21.2511ZM14.71 2.08203C16.6363 2.08203 18.0007 2.0834 19.0532 2.19743C20.087 2.30944 20.7006 2.52043 21.1691 2.86082L22.3447 1.24278C21.4784 0.613404 20.4726 0.33951 19.2686 0.20907C18.0834 0.0806587 16.5918 0.0820312 14.71 0.0820312V2.08203ZM24.85 10.222C24.85 8.34027 24.8514 6.84863 24.723 5.6634C24.5925 4.45946 24.3186 3.45365 23.6892 2.58738L22.0712 3.76295C22.4116 4.23146 22.6226 4.84505 22.7346 5.87883C22.8486 6.93132 22.85 8.29572 22.85 10.222H24.85ZM21.1691 2.86082C21.5153 3.11233 21.8197 3.41677 22.0712 3.76295L23.6892 2.58738C23.3144 2.07141 22.8606 1.61766 22.3447 1.24278L21.1691 2.86082ZM10.14 0.0820312C8.25824 0.0820312 6.7666 0.0806587 5.58137 0.20907C4.37743 0.33951 3.37162 0.613404 2.50535 1.24278L3.68092 2.86082C4.14943 2.52043 4.76302 2.30944 5.7968 2.19743C6.84929 2.0834 8.21369 2.08203 10.14 2.08203V0.0820312ZM2 10.222C2 8.29573 2.00137 6.93132 2.1154 5.87883C2.22741 4.84505 2.4384 4.23146 2.77879 3.76295L1.16075 2.58738C0.531373 3.45365 0.257478 4.45946 0.127039 5.6634C-0.00137258 6.84864 0 8.34028 0 10.222H2ZM2.50535 1.24278C1.98938 1.61766 1.53563 2.07141 1.16075 2.58738L2.77879 3.76295C3.0303 3.41677 3.33474 3.11233 3.68092 2.86082L2.50535 1.24278Z" fill="#0C1A3A"/>
</svg>
