<svg width="25" height="25" viewBox="0 0 25 25" fill="none" xmlns="http://www.w3.org/2000/svg">
<path d="M5.7125 18.2195C5.7125 18.7718 6.16022 19.2195 6.7125 19.2195C7.26478 19.2195 7.7125 18.7718 7.7125 18.2195H5.7125ZM10.1556 18.2195C10.1556 18.7718 10.6033 19.2195 11.1556 19.2195C11.7078 19.2195 12.1556 18.7718 12.1556 18.2195H10.1556ZM12.1556 10.6029C12.1556 10.0506 11.7078 9.60287 11.1556 9.60287C10.6033 9.60287 10.1556 10.0506 10.1556 10.6029H12.1556ZM2.51145 23.2318L3.09924 22.4227L2.51145 23.2318ZM1.70027 22.4206L2.50929 21.8328L1.70027 22.4206ZM23.1497 22.4206L22.3407 21.8328L23.1497 22.4206ZM22.3385 23.2318L21.7508 22.4227L22.3385 23.2318ZM22.3385 1.7823L21.7508 2.59132L22.3385 1.7823ZM23.1497 2.59349L22.3407 3.18127L23.1497 2.59349ZM2.51145 1.7823L3.09924 2.59132L2.51145 1.7823ZM1.70027 2.59349L2.50929 3.18127L1.70027 2.59349ZM17.1375 13.2211V18.2195H19.1375V13.2211H17.1375ZM5.7125 10.6029V18.2195H7.7125V10.6029H5.7125ZM12.1556 18.2195V14.9666H10.1556V18.2195H12.1556ZM12.1556 14.9666V10.6029H10.1556V14.9666H12.1556ZM15.5193 9.60287C12.557 9.60287 10.1556 12.0043 10.1556 14.9666H12.1556C12.1556 13.1089 13.6615 11.6029 15.5193 11.6029V9.60287ZM19.1375 13.2211C19.1375 11.2228 17.5176 9.60287 15.5193 9.60287V11.6029C16.413 11.6029 17.1375 12.3274 17.1375 13.2211H19.1375ZM6.98217 6.79476C6.98217 6.94357 6.86154 7.0642 6.71273 7.0642V9.0642C7.9661 9.0642 8.98217 8.04814 8.98217 6.79476H6.98217ZM6.71273 7.0642C6.56392 7.0642 6.44328 6.94357 6.44328 6.79476H4.44328C4.44328 8.04814 5.45935 9.0642 6.71273 9.0642V7.0642ZM6.44328 6.79476C6.44328 6.64595 6.56392 6.52531 6.71273 6.52531V4.52531C5.45935 4.52531 4.44328 5.54138 4.44328 6.79476H6.44328ZM6.71273 6.52531C6.86154 6.52531 6.98217 6.64595 6.98217 6.79476H8.98217C8.98217 5.54138 7.9661 4.52531 6.71273 4.52531V6.52531ZM7.6 2.08203H17.25V0.0820312H7.6V2.08203ZM22.85 7.68203V17.332H24.85V7.68203H22.85ZM17.25 22.932H7.60001V24.932H17.25V22.932ZM2 17.332V7.68204H0V17.332H2ZM7.60001 22.932C6.20283 22.932 5.23527 22.9307 4.49371 22.8503C3.77086 22.772 3.38228 22.6284 3.09924 22.4227L1.92367 24.0408C2.60447 24.5354 3.38526 24.7419 4.27828 24.8387C5.15258 24.9334 6.24738 24.932 7.60001 24.932V22.932ZM0 17.332C0 18.6847 -0.00137258 19.7795 0.0933518 20.6538C0.190104 21.5468 0.396624 22.3276 0.891254 23.0084L2.50929 21.8328C2.30365 21.5498 2.16003 21.1612 2.08172 20.4383C2.00137 19.6968 2 18.7292 2 17.332H0ZM3.09924 22.4227C2.87285 22.2583 2.67377 22.0592 2.50929 21.8328L0.891254 23.0084C1.17909 23.4045 1.52749 23.7529 1.92367 24.0408L3.09924 22.4227ZM22.85 17.332C22.85 18.7292 22.8486 19.6968 22.7683 20.4383C22.69 21.1612 22.5464 21.5498 22.3407 21.8328L23.9587 23.0084C24.4534 22.3276 24.6599 21.5468 24.7566 20.6538C24.8514 19.7795 24.85 18.6847 24.85 17.332H22.85ZM17.25 24.932C18.6026 24.932 19.6974 24.9334 20.5717 24.8387C21.4647 24.7419 22.2455 24.5354 22.9263 24.0408L21.7508 22.4227C21.4677 22.6284 21.0791 22.772 20.3563 22.8503C19.6147 22.9307 18.6472 22.932 17.25 22.932V24.932ZM22.3407 21.8328C22.1762 22.0592 21.9771 22.2583 21.7508 22.4227L22.9263 24.0408C23.3225 23.7529 23.6709 23.4045 23.9587 23.0084L22.3407 21.8328ZM17.25 2.08203C18.6472 2.08203 19.6147 2.0834 20.3563 2.16375C21.0791 2.24206 21.4677 2.38568 21.7508 2.59132L22.9263 0.973285C22.2455 0.478655 21.4647 0.272135 20.5717 0.175383C19.6974 0.0806587 18.6026 0.0820312 17.25 0.0820312V2.08203ZM24.85 7.68203C24.85 6.3294 24.8514 5.23461 24.7566 4.36031C24.6599 3.46729 24.4534 2.6865 23.9587 2.0057L22.3407 3.18127C22.5464 3.46431 22.69 3.85289 22.7683 4.57574C22.8486 5.3173 22.85 6.28485 22.85 7.68203H24.85ZM21.7508 2.59132C21.9771 2.7558 22.1762 2.95488 22.3407 3.18127L23.9587 2.0057C23.6709 1.60953 23.3225 1.26112 22.9263 0.973285L21.7508 2.59132ZM7.6 0.0820312C6.24737 0.0820312 5.15258 0.0806587 4.27828 0.175383C3.38526 0.272135 2.60447 0.478655 1.92367 0.973285L3.09924 2.59132C3.38228 2.38568 3.77086 2.24206 4.4937 2.16375C5.23527 2.0834 6.20282 2.08203 7.6 2.08203V0.0820312ZM2 7.68204C2 6.28486 2.00137 5.3173 2.08172 4.57574C2.16003 3.85289 2.30365 3.46431 2.50929 3.18127L0.891254 2.0057C0.396624 2.6865 0.190104 3.4673 0.0933518 4.36031C-0.00137258 5.23461 0 6.32941 0 7.68204H2ZM1.92367 0.973285C1.52749 1.26112 1.17909 1.60952 0.891254 2.0057L2.50929 3.18127C2.67377 2.95488 2.87285 2.7558 3.09924 2.59132L1.92367 0.973285Z" fill="#0C1A3A"/>
</svg>
