<svg width="14" height="24" viewBox="0 0 14 24" fill="none" xmlns="http://www.w3.org/2000/svg">
<path d="M6.76 22.682H7.24C8.13994 22.682 8.5899 22.682 8.90534 22.4529C9.00722 22.3788 9.09681 22.2892 9.17082 22.1874C9.4 21.8719 9.4 21.422 9.4 20.522V13.682H10.9C11.7427 13.682 12.164 13.682 12.4667 13.4798C12.5977 13.3922 12.7102 13.2797 12.7978 13.1487C13 12.846 13 12.4247 13 11.582C13 10.7394 13 10.318 12.7978 10.0153C12.7102 9.88432 12.5977 9.77182 12.4667 9.68427C12.164 9.48203 11.7427 9.48203 10.9 9.48203H9.4V7.08203C9.4 6.5229 9.4 6.24334 9.49134 6.02281C9.61314 5.72878 9.84675 5.49517 10.1408 5.37338C10.3613 5.28203 10.6409 5.28203 11.2 5.28203C11.7591 5.28203 12.0387 5.28203 12.2592 5.19069C12.5533 5.06889 12.7869 4.83529 12.9087 4.54125C13 4.32073 13 4.04116 13 3.48203V2.9487C13 2.3269 13 2.016 12.8876 1.77489C12.7683 1.5192 12.5628 1.31369 12.3071 1.19446C12.066 1.08203 11.7551 1.08203 11.1333 1.08203C8.95703 1.08203 7.86888 1.08203 7.02501 1.47554C6.13009 1.89284 5.41081 2.61212 4.99351 3.50704C4.6 4.35091 4.6 5.43906 4.6 7.61537V9.48203H3.1C2.25732 9.48203 1.83598 9.48203 1.53332 9.68427C1.40229 9.77182 1.28979 9.88432 1.20224 10.0153C1 10.318 1 10.7394 1 11.582C1 12.4247 1 12.846 1.20224 13.1487C1.28979 13.2797 1.40229 13.3922 1.53332 13.4798C1.83598 13.682 2.25732 13.682 3.1 13.682H4.6V20.522C4.6 21.422 4.6 21.8719 4.82918 22.1874C4.9032 22.2892 4.99278 22.3788 5.09466 22.4529C5.4101 22.682 5.86006 22.682 6.76 22.682Z" stroke="#0C1A3A" stroke-width="2" stroke-linejoin="round"/>
</svg>
