<svg width="50" height="51" viewBox="0 0 50 51" fill="none" xmlns="http://www.w3.org/2000/svg">
<circle cx="25" cy="25.041" r="25" fill="#0C1A3A"/>
<path d="M25.1534 14.8145C19.5234 14.8145 14.9593 19.3451 16.0921 25.0083C16.8457 28.7754 20.606 32.2919 23.0396 34.2244C23.835 34.8561 24.2327 35.1719 24.8502 35.2553C25.0214 35.2784 25.2853 35.2784 25.4565 35.2553C26.0741 35.1719 26.4718 34.8561 27.2672 34.2245C29.7008 32.292 33.4613 28.7755 34.2146 25.0083C35.3471 19.3451 30.7833 14.8145 25.1534 14.8145Z" stroke="white" stroke-width="2" stroke-linejoin="round"/>
<path d="M28.5512 24.0456C28.5512 25.9222 27.0299 27.4436 25.1532 27.4436C23.2766 27.4436 21.7553 25.9222 21.7553 24.0456C21.7553 22.1689 23.2766 20.6476 25.1532 20.6476C27.0299 20.6476 28.5512 22.1689 28.5512 24.0456Z" stroke="white" stroke-width="2" stroke-linejoin="round"/>
</svg>
